# xmcd CD database file
#
# Track frame offsets:
#	150
#	13832
#	27006
#	45684
#	61388
#	73656
#	86582
#	102504
#	121304
#	140402
#	156237
#	173889
#	189424
#	201749
#	228421
#	245679
#	259061
#	272132
#	299017
#	319998
#	334720
#
# Disc length: 4673 seconds
#
# Revision: 0
# Processed by: cddbd v1.5.1PL0 Copyright (c) Steve Scherf et al.
# Submitted via: CDex 1.51
#
DISCID=46123f15
DTITLE=Maanam - Wet Cat
DYEAR=1985
DGENRE=Blues
TTITLE0=Lipstick On The Glass
TTITLE1=Don't Lean Out
TTITLE2=Luciola
TTITLE3=Kreon
TTITLE4=I Have a Lover
TTITLE5=Love Is Fun
TTITLE6=Simple Story
TTITLE7=Salamander
TTITLE8=You or Me
TTITLE9=Red Cowboys
TTITLE10=Good Night Albert
TTITLE11=Przerwa na papierosa
TTITLE12=Menta Cat (english version)
TTITLE13=Milosc jest jak opium
TTITLE14=Stoje, stoje, czuje sie swietnie
TTITLE15=French is Strange
TTITLE16=Mental Cat
TTITLE17=Eksplozja
TTITLE18=Krakowski Spleen
TTITLE19=Boskie Buenos
TTITLE20=O! Nie rob tyle halasu
EXTD=YEAR: 1985
EXTT0=
EXTT1=
EXTT2=
EXTT3=
EXTT4=
EXTT5=
EXTT6=
EXTT7=
EXTT8=
EXTT9=
EXTT10=
EXTT11=
EXTT12=
EXTT13=
EXTT14=
EXTT15=
EXTT16=
EXTT17=
EXTT18=
EXTT19=
EXTT20=
PLAYORDER=
